Black Screen Detected - Start: 0s, End: 10.3016s, Duration: 10.3016s
["ffmpeg version 2023-10-04-git-9078dc0c52-full_build-www.gyan.dev Copyright (c) 2000-2023 the FFmpeg developers\r\n  built with gcc 13.2.0 (Rev2, Built by MSYS2 project)\r\n  configuration: --enable-gpl --enable-version3 --enable-static --pkg-config=pkgconf --disable-w32threads --disable-autodetect --enable-fontconfig --enable-iconv --enable-gnutls --enable-libxml2 --enable-gmp --enable-bzlib --enable-lzma --enable-libsnappy --enable-zlib --enable-librist --enable-libsrt --enable-libssh --enable-libzmq --enable-avisynth --enable-libbluray --enable-libcaca --enable-sdl2 --enable-libaribb24 --enable-libaribcaption --enable-libdav1d --enable-libdavs2 --enable-libuavs3d --enable-libzvbi --enable-librav1e --enable-libsvtav1 --enable-libwebp --enable-libx264 --enable-libx265 --enable-libxavs2 --enable-libxvid --enable-libaom --enable-libjxl --enable-libopenjpeg --enable-libvpx --enable-mediafoundation --enable-libass --enable-frei0r --enable-libfreetype --enable-libfribidi --enable-libharfbuzz --enable-liblensfun --enable-libvidstab --enable-libvmaf --enable-libzimg --enable-amf --enable-cuda-llvm --enable-cuvid --enable-ffnvcodec --enable-nvdec --enable-nvenc --enable-d3d11va --enable-dxva2 --enable-libvpl --enable-libshaderc --enable-vulkan --enable-libplacebo --enable-opencl --enable-libcdio --enable-libgme --enable-libmodplug --enable-libopenmpt --enable-libopencore-amrwb --enable-libmp3lame --enable-libshine --enable-libtheora --enable-libtwolame --enable-libvo-amrwbenc --enable-libcodec2 --enable-libilbc --enable-libgsm --enable-libopencore-amrnb --enable-libopus --enable-libspeex --enable-libvorbis --enable-ladspa --enable-libbs2b --enable-libflite --enable-libmysofa --enable-librubberband --enable-libsoxr --enable-chromaprint\r\n","  libavutil      58. 27.100 / 58. 27.100\r\n  libavcodec     60. 28.100 / 60. 28.100\r\n  libavformat    60. 14.100 / 60. 14.100\r\n  libavdevice    60.  2.101 / 60.  2.101\r\n  libavfilter     9. 11.100 /  9. 11.100\r\n  libswscale      7.  4.100 /  7.  4.100\r\n  libswresample   4. 11.100 /  4. 11.100\r\n  libpostproc    57.  2.100 / 57.  2.100\r\n","Input #0, mov,mp4,m4a,3gp,3g2,mj2, from 'pipe:0':\r\n  Metadata:\r\n    major_brand     : mp42\r\n    minor_version   : 0\r\n    compatible_brands: isommp42\r\n    creation_time   : 2022-08-15T11:01:18.000000Z\r\n  Duration: 00:00:10.36, start: 0.000000, bitrate: N/A\r\n","  Stream #0:0[0x1](und): Video: h264 (High) (avc1 / 0x31637661), yuv420p(tv, smpte170m/bt470bg/bt709, progressive), 1280x590 [SAR 1:1 DAR 128:59], 28 kb/s, 24.27 fps, 24.27 tbr, 12134 tbn (default)\r\n    Metadata:\r\n      creation_time   : 2022-08-15T11:01:18.000000Z\r\n      handler_name    : ISO Media file produced by Google Inc. Created on: 08/15/2022.\r\n      vendor_id       : [0][0][0][0]\r\n  Stream #0:1[0x2](eng): Audio: aac (LC) (mp4a / 0x6134706D), 44100 Hz, stereo, fltp, 127 kb/s (default)\r\n    Metadata:\r\n      creation_time   : 2022-08-15T11:01:18.000000Z\r\n      handler_name    : ISO Media file produced by Google Inc. Created on: 08/15/2022.\r\n      vendor_id       : [0][0][0][0]\r\n","Stream mapping:\r\n  Stream #0:0 -> #0:0 (h264 (native) -> wrapped_avframe (native))\r\n","Output #0, null, to 'pipe:':\r\n  Metadata:\r\n    major_brand     : mp42\r\n    minor_version   : 0\r\n    compatible_brands: isommp42\r\n    encoder         : Lavf60.14.100\r\n  Stream #0:0(und)",": Video: wrapped_avframe, yuv420p(tv, smpte170m/bt470bg/bt709, progressive), 1280x590 [SAR 1:1 DAR 128:59], q=2-31, 200 kb/s, 24.27 fps, 24.27 tbn (default)\r\n    Metadata:\r\n      creation_time   : 2022-08-15T11:01:18.000000Z\r\n      handler_name    : ISO Media file produced by Google Inc. Created on: 08/15/2022.\r\n      vendor_id       : [0][0][0][0]\r\n      encoder         : Lavc60.28.100 wrapped_avframe\r\n","frame=    0 fps=0.0 q=-0.0 size=       0kB time=00:00:00.00 bitrate=N/A speed=   0x    \r","[out#0/null @ 0000029aeea38b80] video:118kB audio:0kB subtitle:0kB other streams:0kB global headers:0kB muxing overhead: unknown\r\nframe=  251 fps=0.0 q=-0.0 Lsize=N/A time=00:00:10.30 bitrate=N/A speed=48.6x    \r\n[blackdetect @ 0000029aef0ba840] black_start:0 black_end:10.3016 black_duration:10.3016\r\n"]